<svg xmlns="http://www.w3.org/2000/svg" xmlns:xlink="http://www.w3.org/1999/xlink" viewBox="0 0 48 48"
 version="1.1">
	<g id="surface1">
		<path style=" fill:#E91E63;" d="M 7.9375 25.921875 C 3.921875 29.9375 3.832031 36.359375 7.738281 40.265625 C 11.640625 44.167969 18.0625 44.078125 22.078125 40.0625 L 31.070313 31.070313 L 16.929688 16.929688 Z "></path>
		<path style=" fill:#00BCD4;" d="M 40.265625 7.734375 C 36.355469 3.828125 29.9375 3.921875 25.921875 7.9375 L 16.929688 16.929688 L 31.070313 31.070313 L 40.058594 22.078125 C 44.078125 18.0625 44.167969 11.640625 40.265625 7.734375 Z "></path>
		<path style=" fill:#00838F;" d="M 31.070313 31.070313 L 16.929688 16.929688 L 18.34375 15.515625 L 32.484375 29.65625 Z "></path>
		<path style=" fill:#FCE4EC;" d="M 18.855469 18.855469 L 9.664063 28.046875 C 9.664063 28.046875 4.523438 33.191406 9.664063 38.332031 C 10.113281 38.777344 10.609375 39.144531 11.140625 39.433594 C 7.09375 35.765625 12.234375 30.621094 12.234375 30.621094 L 21.429688 21.429688 Z "></path>
		<path style=" fill:#E0F7FA;" d="M 31.265625 11.59375 C 31.265625 11.59375 35.765625 7.09375 39.621094 10.949219 C 39.332031 10.421875 38.972656 9.921875 38.523438 9.476563 C 33.191406 4.519531 28.691406 9.019531 28.691406 9.019531 L 18.855469 18.855469 L 21.429688 21.429688 Z "></path>
		<path style=" fill:#80DEEA;" d="M 21.425781 21.429688 L 18.855469 18.855469 L 20.269531 17.441406 L 22.839844 20.015625 Z "></path>
	</g>
</svg>
